<svg width="11" height="14" viewBox="0 0 11 14" fill="none" xmlns="http://www.w3.org/2000/svg">
<path fill-rule="evenodd" clip-rule="evenodd" d="M7.865 4C7.865 5.38071 6.89122 6.5 5.69 6.5C4.48878 6.5 3.515 5.38071 3.515 4C3.515 2.61929 4.48878 1.5 5.69 1.5C6.89122 1.5 7.865 2.61929 7.865 4ZM9.17 4C9.17 6.20914 7.61195 8 5.69 8C3.76805 8 2.21 6.20914 2.21 4C2.21 1.79086 3.76805 0 5.69 0C7.61195 0 9.17 1.79086 9.17 4ZM3.95 9.25C2.14817 9.25 0.6875 10.9289 0.6875 13V14H1.9925V13C1.9925 11.7574 2.8689 10.75 3.95 10.75H7.43C8.5111 10.75 9.3875 11.7574 9.3875 13V14H10.6925V13C10.6925 10.9289 9.23183 9.25 7.43 9.25H3.95Z" fill="#FF3055"/>
</svg>
