<svg width="21" height="16" viewBox="0 0 21 16" fill="none" xmlns="http://www.w3.org/2000/svg">
<path d="M20.1923 1.67207H7.26918C6.78456 1.67207 6.46149 1.35367 6.46149 0.876075C6.46149 0.398477 6.78456 0.0800781 7.26918 0.0800781H20.1923C20.6769 0.0800781 21 0.398477 21 0.876075C21 1.35367 20.6769 1.67207 20.1923 1.67207Z" fill="#A0A0A0"/>
<path d="M20.1923 8.83613H7.26918C6.78456 8.83613 6.46149 8.51774 6.46149 8.04014C6.46149 7.56254 6.78456 7.24414 7.26918 7.24414H20.1923C20.6769 7.24414 21 7.56254 21 8.04014C21 8.51774 20.6769 8.83613 20.1923 8.83613Z" fill="#A0A0A0"/>
<path d="M20.1923 15.9992H7.26918C6.78456 15.9992 6.46149 15.6808 6.46149 15.2032C6.46149 14.7256 6.78456 14.4072 7.26918 14.4072H20.1923C20.6769 14.4072 21 14.7256 21 15.2032C21 15.6808 20.6769 15.9992 20.1923 15.9992Z" fill="#A0A0A0"/>
<path d="M0.807694 1.67159C0.646155 1.67159 0.323078 1.51239 0.161539 1.35319C6.13814e-07 1.19399 0 1.03479 0 0.875596C0 0.716396 6.13814e-07 0.397998 0.161539 0.238799C0.484617 -0.0795996 0.969233 -0.0795996 1.29231 0.238799C1.45385 0.397998 1.61539 0.557197 1.61539 0.875596C1.61539 1.03479 1.45385 1.35319 1.29231 1.35319C1.29231 1.51239 0.969233 1.67159 0.807694 1.67159Z" fill="#A0A0A0"/>
<path d="M0.807694 8.83663C0.646155 8.83663 0.323078 8.67743 0.161539 8.51823C6.13814e-07 8.35903 0 8.19983 0 8.04063C0 7.88144 6.13814e-07 7.56304 0.161539 7.40384C0.484617 7.08544 0.969233 7.08544 1.29231 7.40384C1.45385 7.56304 1.61539 7.72224 1.61539 8.04063C1.61539 8.19983 1.45385 8.51823 1.29231 8.51823C1.29231 8.67743 0.969233 8.83663 0.807694 8.83663Z" fill="#A0A0A0"/>
<path d="M0.807694 15.9987C0.646155 15.9987 0.323078 15.8395 0.161539 15.6803C6.13814e-07 15.5211 0 15.3619 0 15.2027C0 15.0435 6.13814e-07 14.7251 0.161539 14.5659C0.484617 14.2475 0.969233 14.2475 1.29231 14.5659C1.45385 14.7251 1.61539 14.8843 1.61539 15.2027C1.61539 15.3619 1.45385 15.6803 1.29231 15.6803C1.29231 15.8395 0.969233 15.9987 0.807694 15.9987Z" fill="#A0A0A0"/>
</svg>
