<svg width="83" height="75" viewBox="0 0 83 75" fill="none" xmlns="http://www.w3.org/2000/svg">
<g clip-path="url(#clip0_56_1069)">
<path d="M66.4 17.5C64.6349 17.5 62.9845 17.9362 61.5583 18.6837C60.1321 17.9362 58.4818 17.5 56.7167 17.5C51.3784 17.5 47.0333 21.425 47.0333 26.25C47.0333 31.075 51.3784 35 56.7167 35C58.4818 35 60.1321 34.5637 61.5583 33.8162C62.9845 34.5637 64.6349 35 66.4 35C71.7383 35 76.0833 31.075 76.0833 26.25C76.0833 21.425 71.7383 17.5 66.4 17.5ZM63.6333 26.25C63.6333 27.9925 62.8365 29.5675 61.5583 30.7025C60.2801 29.5675 59.4833 27.9925 59.4833 26.25C59.4833 24.5075 60.2801 22.9325 61.5583 21.7975C62.8365 22.9325 63.6333 24.5075 63.6333 26.25ZM49.8 26.25C49.8 22.8037 52.9028 20 56.7167 20C57.5895 20 58.4182 20.1625 59.1887 20.4312C57.6573 21.9787 56.7167 24.015 56.7167 26.25C56.7167 28.485 57.6573 30.5212 59.1887 32.0687C58.4182 32.3375 57.5895 32.5 56.7167 32.5C52.9028 32.5 49.8 29.6962 49.8 26.25ZM66.4 32.5C65.5271 32.5 64.6985 32.3375 63.928 32.0687C65.4593 30.5212 66.4 28.485 66.4 26.25C66.4 24.015 65.4593 21.9787 63.928 20.4312C64.6985 20.1625 65.5271 20 66.4 20C70.2138 20 73.3167 22.8037 73.3167 26.25C73.3167 29.6962 70.2138 32.5 66.4 32.5Z" fill="black"/>
<path d="M77.1665 10H5.83352C2.61727 10 0 12.365 0 15.2712V59.7287C0 62.635 2.61727 65 5.83352 65H77.1665C80.3827 65 83 62.635 83 59.7287V15.2712C83 12.365 80.3827 10 77.1665 10ZM80.2333 59.7287C80.2333 61.2562 78.8583 62.5 77.1665 62.5H5.83352C4.1417 62.5 2.76667 61.2562 2.76667 59.7287V15.2712C2.76667 13.7437 4.1417 12.5 5.83352 12.5H77.1665C78.8583 12.5 80.2333 13.7437 80.2333 15.2712V59.7287Z" fill="black"/>
<path d="M8.30002 22.5H20.75C21.515 22.5 22.1334 21.94 22.1334 21.25C22.1334 20.56 21.515 20 20.75 20H8.30002C7.53504 20 6.91669 20.56 6.91669 21.25C6.91669 21.94 7.53504 22.5 8.30002 22.5Z" fill="black"/>
<path d="M38.7334 20H26.2834C25.5184 20 24.9 20.56 24.9 21.25C24.9 21.94 25.5184 22.5 26.2834 22.5H38.7334C39.4983 22.5 40.1167 21.94 40.1167 21.25C40.1167 20.56 39.4983 20 38.7334 20Z" fill="black"/>
<path d="M8.30002 28.75H9.68335C10.4483 28.75 11.0667 28.19 11.0667 27.5C11.0667 26.81 10.4483 26.25 9.68335 26.25H8.30002C7.53504 26.25 6.91669 26.81 6.91669 27.5C6.91669 28.19 7.53504 28.75 8.30002 28.75Z" fill="black"/>
<path d="M15.2166 26.25C14.4517 26.25 13.8333 26.81 13.8333 27.5C13.8333 28.19 14.4517 28.75 15.2166 28.75H17.9833C18.7483 28.75 19.3666 28.19 19.3666 27.5C19.3666 26.81 18.7483 26.25 17.9833 26.25H15.2166Z" fill="black"/>
<path d="M26.2833 27.5C26.2833 26.81 25.665 26.25 24.9 26.25H23.5166C22.7517 26.25 22.1333 26.81 22.1333 27.5C22.1333 28.19 22.7517 28.75 23.5166 28.75H24.9C25.665 28.75 26.2833 28.19 26.2833 27.5Z" fill="black"/>
<path d="M33.2 28.75C33.965 28.75 34.5833 28.19 34.5833 27.5C34.5833 26.81 33.965 26.25 33.2 26.25H30.4333C29.6683 26.25 29.05 26.81 29.05 27.5C29.05 28.19 29.6683 28.75 30.4333 28.75H33.2Z" fill="black"/>
<path d="M37.765 26.6124C37.5008 26.8499 37.35 27.1624 37.35 27.4999C37.35 27.8374 37.5008 28.1499 37.7511 28.3874C38.0126 28.6124 38.3736 28.7499 38.7333 28.7499C39.093 28.7499 39.4526 28.6124 39.7155 28.3874C39.9645 28.1499 40.1166 27.8249 40.1166 27.4999C40.1166 27.1749 39.9645 26.8499 39.7155 26.6249C39.2036 26.1499 38.263 26.1499 37.765 26.6124Z" fill="black"/>
<path d="M6.91669 56.25H22.1334V46.25H6.91669V56.25ZM9.68335 48.75H19.3667V53.75H9.68335V48.75Z" fill="black"/>
<path d="M24.9 56.25H40.1167V46.25H24.9V56.25ZM27.6667 48.75H37.35V53.75H27.6667V48.75Z" fill="black"/>
<path d="M42.8834 56.25H58.1V46.25H42.8834V56.25ZM45.65 48.75H55.3334V53.75H45.65V48.75Z" fill="black"/>
<path d="M60.8667 56.25H76.0834V46.25H60.8667V56.25ZM63.6334 48.75H73.3167V53.75H63.6334V48.75Z" fill="black"/>
</g>
<defs>
<clipPath id="clip0_56_1069">
<rect width="83" height="75" fill="white"/>
</clipPath>
</defs>
</svg>
