<svg width="20" height="15" viewBox="0 0 20 15" fill="none" xmlns="http://www.w3.org/2000/svg">
<path d="M15.6937 11.8882H7.3394C6.04508 11.8882 4.86842 11.1731 4.51542 10.0494L2.16211 3.00078L1.57378 1.26416L0.397122 0.957695C0.0441248 0.855541 -0.0735411 0.549079 0.0441246 0.34477C0.16179 0.0383079 0.514788 -0.0638464 0.750119 0.0383078L2.16211 0.446924C2.39744 0.446924 2.5151 0.651232 2.5151 0.753387L3.10343 2.38785L18.4 3.30724C18.8706 3.30724 19.459 3.6137 19.6943 3.92017C20.0473 4.32878 20.0473 4.7374 19.9296 5.24817L18.5176 10.0494C18.1646 11.1731 16.988 11.8882 15.6937 11.8882ZM3.5741 3.40939L5.69208 9.74295C5.92741 10.3559 6.6334 10.8666 7.3394 10.8666H15.6937C16.5173 10.8666 17.2233 10.3559 17.341 9.74295L18.753 4.94171C18.753 4.83955 18.753 4.63524 18.6353 4.53309C18.5176 4.43094 18.4 4.32878 18.1646 4.32878L3.5741 3.40939Z" fill="white"/>
<path d="M6.98637 14.9534C5.69205 14.9534 4.63306 14.034 4.63306 12.9103C4.63306 11.7866 5.69205 10.8672 6.98637 10.8672C8.28069 10.8672 9.33969 11.7866 9.33969 12.9103C9.33969 14.034 8.28069 14.9534 6.98637 14.9534ZM6.98637 11.8887C6.28038 11.8887 5.80971 12.2973 5.80971 12.9103C5.80971 13.5232 6.28038 13.9318 6.98637 13.9318C7.69237 13.9318 8.16303 13.5232 8.16303 12.9103C8.16303 12.2973 7.5747 11.8887 6.98637 11.8887Z" fill="white"/>
<path d="M15.576 14.9534C14.2816 14.9534 13.2227 14.034 13.2227 12.9103C13.2227 11.7866 14.2816 10.8672 15.576 10.8672C16.8703 10.8672 17.9293 11.7866 17.9293 12.9103C17.9293 14.034 16.8703 14.9534 15.576 14.9534ZM15.576 11.8887C14.87 11.8887 14.3993 12.2973 14.3993 12.9103C14.3993 13.5232 14.87 13.9318 15.576 13.9318C16.282 13.9318 16.7526 13.5232 16.7526 12.9103C16.7526 12.2973 16.282 11.8887 15.576 11.8887Z" fill="white"/>
</svg>
