<svg width="21" height="19" viewBox="0 0 21 19" fill="none" xmlns="http://www.w3.org/2000/svg">
<path d="M14.0022 11.5278H10.2747C9.69719 11.5278 9.17219 11.1953 9.01469 10.6728L7.96469 7.39531L7.70219 6.58781L7.17719 6.44531C7.01969 6.39781 6.96719 6.25531 7.01969 6.16031C7.07219 6.01781 7.22969 5.97031 7.33469 6.01781L7.96469 6.20781C8.06969 6.20781 8.12219 6.30281 8.12219 6.35031L8.38469 7.11031L15.2097 7.53781C15.4197 7.53781 15.6822 7.68031 15.7872 7.82281C15.9447 8.01281 15.9447 8.20281 15.8922 8.44031L15.2622 10.6728C15.1047 11.1953 14.5797 11.5278 14.0022 11.5278ZM8.59469 7.58531L9.53969 10.5303C9.64469 10.8153 9.95969 11.0528 10.2747 11.0528H14.0022C14.3697 11.0528 14.6847 10.8153 14.7372 10.5303L15.3672 8.29781C15.3672 8.25031 15.3672 8.15531 15.3147 8.10781C15.2622 8.06031 15.2097 8.01281 15.1047 8.01281L8.59469 7.58531Z" fill="#FF3055"/>
<path d="M10.1172 12.9527C9.5397 12.9527 9.0672 12.5252 9.0672 12.0027C9.0672 11.4802 9.5397 11.0527 10.1172 11.0527C10.6947 11.0527 11.1672 11.4802 11.1672 12.0027C11.1672 12.5252 10.6947 12.9527 10.1172 12.9527ZM10.1172 11.5277C9.8022 11.5277 9.5922 11.7177 9.5922 12.0027C9.5922 12.2877 9.8022 12.4777 10.1172 12.4777C10.4322 12.4777 10.6422 12.2877 10.6422 12.0027C10.6422 11.7177 10.3797 11.5277 10.1172 11.5277Z" fill="#FF3055"/>
<path d="M13.9497 12.9527C13.3722 12.9527 12.8997 12.5252 12.8997 12.0027C12.8997 11.4802 13.3722 11.0527 13.9497 11.0527C14.5272 11.0527 14.9997 11.4802 14.9997 12.0027C14.9997 12.5252 14.5272 12.9527 13.9497 12.9527ZM13.9497 11.5277C13.6347 11.5277 13.4247 11.7177 13.4247 12.0027C13.4247 12.2877 13.6347 12.4777 13.9497 12.4777C14.2647 12.4777 14.4747 12.2877 14.4747 12.0027C14.4747 11.7177 14.2647 11.5277 13.9497 11.5277Z" fill="#FF3055"/>
</svg>
