<svg width="43" height="45" viewBox="0 0 43 45" fill="none" xmlns="http://www.w3.org/2000/svg">
<rect width="43" height="45" rx="20" fill="#FF3055"/>
<path d="M36.3026 18.5455V28H35.1577V19.7457H35.1023L32.794 21.2784V20.1151L35.1577 18.5455H36.3026Z" fill="white"/>
<path d="M23.5009 26.8882H15.7816C14.5856 26.8882 13.4984 26.1731 13.1722 25.0494L10.9978 18.0008L10.4542 16.2642L9.36694 15.9577C9.04077 15.8555 8.93205 15.5491 9.04077 15.3448C9.14949 15.0383 9.47566 14.9362 9.69311 15.0383L10.9978 15.4469C11.2152 15.4469 11.324 15.6512 11.324 15.7534L11.8676 17.3879L26.0016 18.3072C26.4365 18.3072 26.9801 18.6137 27.1975 18.9202C27.5237 19.3288 27.5237 19.7374 27.415 20.2482L26.1103 25.0494C25.7841 26.1731 24.6969 26.8882 23.5009 26.8882ZM12.3025 18.4094L14.2595 24.743C14.4769 25.3559 15.1293 25.8666 15.7816 25.8666H23.5009C24.262 25.8666 24.9143 25.3559 25.0231 24.743L26.3277 19.9417C26.3277 19.8396 26.3277 19.6352 26.219 19.5331C26.1103 19.4309 26.0016 19.3288 25.7841 19.3288L12.3025 18.4094Z" fill="white"/>
<path d="M15.455 29.9534C14.259 29.9534 13.2805 29.034 13.2805 27.9103C13.2805 26.7866 14.259 25.8672 15.455 25.8672C16.6509 25.8672 17.6294 26.7866 17.6294 27.9103C17.6294 29.034 16.6509 29.9534 15.455 29.9534ZM15.455 26.8887C14.8026 26.8887 14.3677 27.2973 14.3677 27.9103C14.3677 28.5232 14.8026 28.9318 15.455 28.9318C16.1073 28.9318 16.5422 28.5232 16.5422 27.9103C16.5422 27.2973 15.9986 26.8887 15.455 26.8887Z" fill="white"/>
<path d="M23.3922 29.9534C22.1963 29.9534 21.2178 29.034 21.2178 27.9103C21.2178 26.7866 22.1963 25.8672 23.3922 25.8672C24.5882 25.8672 25.5667 26.7866 25.5667 27.9103C25.5667 29.034 24.5882 29.9534 23.3922 29.9534ZM23.3922 26.8887C22.7399 26.8887 22.305 27.2973 22.305 27.9103C22.305 28.5232 22.7399 28.9318 23.3922 28.9318C24.0446 28.9318 24.4795 28.5232 24.4795 27.9103C24.4795 27.2973 24.0446 26.8887 23.3922 26.8887Z" fill="white"/>
</svg>
