<svg width="331" height="335" viewBox="0 0 331 335" fill="none" xmlns="http://www.w3.org/2000/svg">
<path d="M229.694 315.421L229.441 310.97C227.391 311.168 225.352 311.368 223.323 311.368C209.886 311.368 196.82 306.849 186.636 298.521L126.456 249.267C103.613 230.574 101.514 198.327 121.778 177.244C142.041 156.16 176.99 154.233 199.809 172.902L211.171 182.205L221.044 167.675L217.314 104.001C216.726 94.1463 207.919 86.4389 197.217 86.4389H178.215V58.4457C178.215 26.2178 149.805 0 114.892 0C79.9926 0 51.5935 26.2117 51.5935 58.4362V86.4409H32.4924C21.8131 86.4409 12.9838 94.1483 12.4076 104.003L0.0277552 315.421C-0.261431 320.515 1.71872 325.498 5.5223 329.196C9.3141 332.896 14.5916 335 20.1229 335H209.599C215.13 335 220.408 332.896 224.212 329.196C228.002 325.498 229.994 320.515 229.694 315.421ZM88.449 58.4355C88.449 44.9694 100.302 34.0175 114.892 34.0175C129.479 34.0175 141.358 44.9816 141.358 58.445V86.4402H88.449V58.4355Z" fill="#A0A0A0"/>
<path d="M319.483 120.348C307.989 113.705 292.824 116.894 285.602 127.501L218.92 225.614L180.432 194.119C170.283 185.815 154.757 186.679 145.748 196.047C136.737 205.416 137.673 219.745 147.835 228.061L208.015 277.305C212.537 281.004 218.343 283.02 224.318 283.02C225.47 283.02 226.646 282.942 227.797 282.786C234.949 281.846 241.284 278.037 245.122 272.389L327.232 151.608C334.457 141 330.978 127.004 319.483 120.348Z" fill="#A0A0A0"/>
</svg>
