<svg width="22" height="22" viewBox="0 0 22 22" fill="none" xmlns="http://www.w3.org/2000/svg">
<path d="M1.06495 6.52067C1.11418 5.44488 1.28262 4.75106 1.51042 4.16213L1.51348 4.15399C1.73922 3.55468 2.09285 3.01178 2.54976 2.56304L2.55617 2.55675L2.56246 2.55034C3.01157 2.09284 3.55467 1.73956 4.15345 1.51442L4.16377 1.51047C4.75137 1.28196 5.44383 1.11414 6.52052 1.06492M1.06495 6.52067C1.01319 7.67009 1 8.0264 1 11.0066C1 13.9875 1.01246 14.3429 1.06492 15.4926M1.06495 6.52067V6.81061M6.52052 1.06492C7.67021 1.01246 8.02639 1 11.0065 1C13.9867 1 14.3427 1.01318 15.4921 1.06493M6.52052 1.06492H6.8112M1.06492 15.4926C1.11414 16.5694 1.28196 17.2618 1.51047 17.8494L1.51442 17.8598M1.06492 15.4926L1.08255 15.5855M1.06492 15.4926V15.202M1.06495 6.81061C1.06897 6.71849 1.07331 6.62247 1.07795 6.52036C1.13189 5.34331 1.33199 4.65558 1.52272 4.16779C1.76956 3.53076 2.08224 3.05006 2.55994 2.57038C3.01401 2.10459 3.566 1.74565 4.1759 1.51956C4.66153 1.3312 5.34744 1.13171 6.52004 1.07796C6.62249 1.07331 6.7188 1.06896 6.8112 1.06492M1.06495 6.81061C1.02235 7.78467 1.01319 8.32201 1.01319 11.0066C1.01319 13.6903 1.02235 14.2284 1.06492 15.202M1.06495 6.81061L1.06492 15.202M1.51442 17.8598C1.73956 18.4585 2.09284 19.0016 2.55033 19.4507L2.55673 19.4571L2.56302 19.4634C3.01178 19.9203 3.5547 20.274 4.15401 20.4997L4.16295 20.5031C4.75109 20.7312 5.44389 20.8991 6.52052 20.9483M1.51442 17.8598L1.50093 17.7886M1.50093 17.7886L1.08255 15.5855M1.50093 17.7886C1.32323 17.3193 1.14026 16.6642 1.08255 15.5855M1.50093 17.7886C1.50716 17.8052 1.51338 17.8214 1.5196 17.8374C1.74494 18.4448 2.10198 18.9949 2.56507 19.448C3.01801 19.9111 3.56786 20.268 4.17514 20.4934C4.66249 20.6832 5.3492 20.8816 6.52035 20.9353C7.70223 20.9891 8.06738 21 11.0065 21C13.9458 21 14.3113 20.9891 15.4932 20.9353C16.6657 20.8815 17.3516 20.682 17.8373 20.4937C18.4448 20.2684 18.9951 19.9113 19.4481 19.448C19.9111 18.9951 20.268 18.4453 20.4934 17.838C20.6832 17.3506 20.8816 16.664 20.9352 15.4928C20.9889 14.3109 21 13.9451 21 11.0066C21 8.06813 20.9889 7.70194 20.9352 6.52005C20.8812 5.34134 20.6799 4.6544 20.4906 4.16834C20.2433 3.52971 19.9296 3.04671 19.4474 2.56449C18.9661 2.0842 18.4844 1.77031 17.8453 1.52267C17.3575 1.33197 16.6701 1.13191 15.4932 1.07796C15.3907 1.07331 15.2945 1.06897 15.2022 1.06493M1.08255 15.5855C1.08092 15.5551 1.07939 15.5243 1.07796 15.4932C1.07331 15.3907 1.06896 15.2944 1.06492 15.202M15.2022 1.06493H15.4921M15.2022 1.06493L6.8112 1.06492M15.2022 1.06493C14.2285 1.02236 13.6905 1.01319 11.0065 1.01319C8.32282 1.01319 7.78474 1.02235 6.8112 1.06492M15.4921 1.06493C16.5681 1.11415 17.262 1.28257 17.8511 1.51039L17.8592 1.51348C18.4584 1.73922 19.0014 2.09285 19.4501 2.54976L19.4563 2.55611L19.4627 2.56234C19.9197 3.01111 20.2733 3.55417 20.4988 4.15364L20.5026 4.16378C20.7312 4.75138 20.8991 5.44384 20.9482 6.52053M20.9482 15.4926C20.8991 16.5693 20.7312 17.2621 20.5031 17.8502L20.4997 17.8592C20.2739 18.4585 19.9203 19.0014 19.4634 19.4501L19.457 19.4564L19.4507 19.4628C19.0016 19.9203 18.4585 20.2736 17.8597 20.4987L17.8494 20.5027C17.2618 20.7313 16.5693 20.8991 15.4926 20.9483M9.22686 15.3033C9.79107 15.5369 10.3958 15.6573 11.0065 15.6573C12.24 15.6573 13.423 15.1673 14.2952 14.2952C15.1673 13.4229 15.6573 12.24 15.6573 11.0066C15.6573 9.77316 15.1673 8.59023 14.2952 7.71805C13.423 6.84588 12.24 6.35589 11.0065 6.35589C10.3958 6.35589 9.79107 6.47619 9.22686 6.70992C8.66255 6.94363 8.1499 7.2862 7.71805 7.71805C7.2862 8.14991 6.94363 8.6626 6.70991 9.22685C6.47619 9.79105 6.3559 10.3959 6.3559 11.0066C6.3559 11.6174 6.47619 12.2221 6.70991 12.7863C6.94363 13.3506 7.2862 13.8633 7.71805 14.2952C8.1499 14.7269 8.66255 15.0696 9.22686 15.3033ZM7.70769 7.70769C8.58265 6.83277 9.76928 6.34124 11.0065 6.34124C12.2439 6.34124 13.4305 6.83277 14.3055 7.70769C15.1804 8.58262 15.6719 9.76926 15.6719 11.0066C15.6719 12.2439 15.1804 13.4305 14.3055 14.3055C13.4305 15.1804 12.2439 15.6719 11.0065 15.6719C9.76928 15.6719 8.58265 15.1804 7.70769 14.3055C6.83277 13.4305 6.34124 12.2439 6.34124 11.0066C6.34124 9.76926 6.83277 8.58262 7.70769 7.70769ZM18.299 5.25504C18.299 5.60919 18.1582 5.94883 17.9079 6.19925C17.6575 6.44967 17.3178 6.59036 16.9637 6.59036C16.6095 6.59036 16.2699 6.44967 16.0195 6.19925C15.7691 5.94883 15.6283 5.60919 15.6283 5.25504C15.6283 4.90089 15.7691 4.56125 16.0195 4.31084C16.2699 4.06042 16.6095 3.91974 16.9637 3.91974C17.3178 3.91974 17.6575 4.06042 17.9079 4.31084C18.1582 4.56125 18.299 4.90089 18.299 5.25504Z" stroke="#FF3055" stroke-width="2" stroke-linejoin="round"/>
</svg>
