<svg width="85" height="64" viewBox="0 0 85 64" fill="none" xmlns="http://www.w3.org/2000/svg">
<path d="M53.1207 6.67329C45.2759 12.2882 37.4321 17.9031 29.5883 23.5188L51.8437 23.4409L63.6351 15.0004C60.1303 12.2247 56.6255 9.449 53.1207 6.67329ZM70.1316 37.7299V46.6844H79.7885V37.7299H70.1316ZM65.9893 46.6844V37.7299H60.9344V46.6844H65.9893ZM60.7266 34.6103H68.0604H71.6777V26.6384C53.4721 26.6384 35.2304 26.6384 17.0631 26.6384C14.3384 26.6384 14.3384 23.5188 17.0631 23.5188H23.5897L35.9694 14.6572H11.5936C8.08779 14.6572 5.21149 16.8229 5.21149 19.4626V53.1581C5.21149 55.7977 8.08779 57.9626 11.5936 57.9626H65.2956C68.8014 57.9626 71.6777 55.7977 71.6777 53.1581V49.8041H60.7266C58.5611 49.8041 56.7912 48.4684 56.7912 46.8409V37.5734C56.7912 35.9437 58.5641 34.6103 60.7266 34.6103ZM75.8199 34.6103H79.9953C82.1649 34.6103 83.9318 35.9407 83.9318 37.5734V46.8409C83.9318 48.4737 82.1649 49.8041 79.9953 49.8041H75.8199V53.1581C75.8199 57.5197 71.0883 61.0823 65.2956 61.0823H11.5936C5.80081 61.0823 1.06921 57.5197 1.06921 53.1581V19.4626C1.06921 15.101 5.80081 11.5383 11.5936 11.5383H40.3265L51.7704 3.34653C52.5967 2.75389 53.9048 2.77884 54.6919 3.40095L64.9663 11.5383H65.2956C71.0883 11.5383 75.8199 15.101 75.8199 19.4626V25.0782V34.6103ZM57.7329 23.5188H71.6777V19.4626C71.6777 17.7746 70.489 16.222 68.5845 15.3512C68.5062 15.6588 68.3044 15.9506 67.9811 16.1827L57.7329 23.5188Z" fill="black"/>
</svg>
