<svg width="24" height="13" viewBox="0 0 24 13" fill="none" xmlns="http://www.w3.org/2000/svg">
<path d="M23.8683 2.98791C23.7589 2.82142 23.6274 2.78917 23.558 2.79091C23.2658 2.84846 23.288 2.94201 23.1712 3.03341C22.6938 3.62174 18.9629 5.28366 15.5676 5.99765C14.817 6.16106 14.1068 6.23387 13.4392 6.23387C11.1033 6.23467 9.28621 5.34107 8.12088 4.34095C6.88423 3.28957 5.99902 2.68973 5.18794 2.67782C4.94113 2.67742 4.70204 2.74059 4.47994 2.87348C4.20532 3.05469 3.95387 3.33387 3.73332 3.67688C3.6626 3.57931 3.58631 3.47385 3.50607 3.34363C2.53048 2.02593 0.674056 0.121233 0.666161 0.111597L0.669336 0.114943L0.668563 0.114274C0.471953 -0.0923622 0.2054 -0.0109924 0.0732397 0.295616C-0.0591785 0.602359 -0.00708654 1.01791 0.189524 1.22441L0.190296 1.22521L0.193557 1.22829C0.195274 1.2303 1.0145 2.07317 1.83252 3.0037C2.24093 3.46837 2.64909 3.95525 2.94353 4.35406C3.05372 4.50302 3.14812 4.64087 3.21746 4.75275C2.98464 5.41401 2.84449 6.16334 2.83111 6.89888C2.83111 6.94438 2.83162 6.99028 2.83282 7.03552C2.89581 8.16546 3.49715 9.19891 4.60275 10.2554C5.71968 11.2895 7.39271 12.2499 9.72758 12.7931C10.34 12.9356 10.9399 13 11.5244 13C15.4754 12.9963 18.7045 10.0747 20.5014 8.42188C21.4103 7.58262 22.2498 6.5287 22.8709 5.64487C23.1814 5.20242 23.4363 4.80374 23.6202 4.48857C23.7123 4.33011 23.7862 4.19427 23.845 4.07168C23.8984 3.90292 23.9599 3.95123 23.9999 3.47947C24.0018 3.36786 23.9776 3.15507 23.8683 2.98791ZM20.0645 7.26946C18.2864 8.91331 15.1993 11.6654 11.5244 11.6614C10.9804 11.6614 10.4231 11.6019 9.85407 11.4695C7.60708 10.948 6.03412 10.0264 5.04119 9.10469C4.0372 8.20548 3.66483 7.20923 3.69032 6.97837C3.68955 6.95228 3.68938 6.92551 3.68938 6.89861C3.6753 6.42806 3.80695 5.84749 3.99961 5.33679C4.07934 5.24472 4.13709 5.11088 4.16095 4.95577C4.35834 4.53902 4.58747 4.21702 4.78657 4.12334C4.90466 4.05334 5.03235 4.01587 5.18803 4.01547C5.69496 4.00343 6.51324 4.48054 7.70749 5.51332C9.01073 6.62987 10.9622 7.57071 13.4394 7.57152C14.147 7.57152 14.897 7.49443 15.6864 7.32259C17.9753 6.8064 20.2727 6.01037 21.8508 5.25823C21.3277 5.95255 20.7007 6.69545 20.0645 7.26946Z" fill="#FB0000"/>
<path d="M5.75195 8.16479C5.32406 7.77682 4.91564 7.33651 4.53152 6.84749C4.4947 6.80078 4.44064 6.80935 4.41069 6.86676C4.38082 6.92417 4.38623 7.00822 4.42305 7.0552C4.81438 7.55292 5.23017 8.00098 5.6657 8.39592C5.70646 8.43326 5.75907 8.41171 5.7831 8.34788C5.80678 8.2839 5.79297 8.20173 5.75195 8.16479Z" fill="#FB0000"/>
<path d="M11.6815 10.0877C11.3104 10.1547 10.9401 10.1879 10.5724 10.1879C9.24054 10.1879 7.94107 9.75633 6.75223 8.9524C6.7088 8.92309 6.65808 8.95441 6.63937 9.02213C6.62032 9.08985 6.6404 9.16854 6.68383 9.19812V9.19772C7.89396 10.0164 9.21668 10.4552 10.5724 10.4552C10.9467 10.4552 11.3235 10.4216 11.7012 10.3534C11.7482 10.3449 11.782 10.2787 11.7766 10.2051C11.7712 10.132 11.7284 10.0793 11.6815 10.0877Z" fill="#FB0000"/>
</svg>
