<svg width="13" height="24" viewBox="0 0 13 24" fill="none" xmlns="http://www.w3.org/2000/svg">
<path d="M12.9992 12.5198C12.9992 7.1595 9.34306 3.24 6.49962 0C3.65618 3.24 0 7.16025 0 12.5198C0 17.5597 3.77805 18.8797 6.09363 19.5998V24H6.90637V19.5998C9.22195 18.8797 13 17.5597 13 12.5198H12.9992ZM6.90561 18.7598V15.6398L9.46493 13.1198L8.89594 12.5595L6.90561 14.5192V6.399H6.09287V10.239L3.98066 8.15925L3.41167 8.7195L6.09287 11.3595V18.7598C3.85879 18.0398 0.811976 16.8 0.811976 12.5198C0.811976 7.83975 3.77729 4.32 6.49962 1.23975C9.22119 4.32 12.1873 7.83975 12.1873 12.5198C12.1873 16.8 9.13968 18.0398 6.90561 18.7598Z" fill="#00FF0A"/>
</svg>
