<svg width="22" height="22" viewBox="0 0 22 22" fill="none" xmlns="http://www.w3.org/2000/svg">
<path d="M11.9902 12.6008C11.9902 12.6008 12.4076 12.6338 12.6315 12.3742L13.07 11.8572C13.2811 11.602 13.7899 11.4392 14.2894 11.6988C14.6634 11.899 15.0265 12.1168 15.3774 12.3511C15.708 12.5788 16.3857 13.1101 16.388 13.1101C16.7116 13.3664 16.7867 13.7415 16.5662 14.1375L16.5639 14.1463C16.3217 14.5403 16.0142 14.8956 15.6529 15.199L15.6447 15.2045C15.3313 15.4501 15.0229 15.5898 14.7197 15.6236C14.6752 15.6312 14.63 15.6341 14.5848 15.6324C14.4515 15.6334 14.3188 15.6141 14.1921 15.5752L14.1815 15.562C13.7149 15.4377 12.9364 15.1286 11.6385 14.4576C10.8878 14.0735 10.1732 13.6304 9.50229 13.1332C9.16578 12.8841 8.84478 12.6171 8.54089 12.3335L8.50924 12.3038L8.47641 12.273L8.44358 12.2433L8.41192 12.2125C8.10964 11.9274 7.82505 11.6262 7.55956 11.3105C7.02962 10.681 6.5574 10.0105 6.14794 9.30631C5.43275 8.08862 5.1033 7.35932 4.97081 6.91932L4.95674 6.91052C4.91568 6.79154 4.89548 6.66709 4.89695 6.54203C4.89454 6.4997 4.8973 6.45726 4.90516 6.41553C4.94267 6.13173 5.09196 5.84206 5.35303 5.54653L5.35889 5.53883C5.68207 5.19977 6.06084 4.91124 6.48091 4.68414L6.48912 4.68304C6.9112 4.47624 7.31217 4.54664 7.58418 4.84804C7.58653 4.84914 8.15164 5.48603 8.39317 5.79623C8.64296 6.12575 8.87501 6.46681 9.08842 6.81812C9.36629 7.28562 9.19277 7.76412 8.91959 7.96212L8.36854 8.37241C8.09068 8.58361 8.12702 8.97521 8.12702 8.97521C8.12702 8.97521 8.94304 11.8715 11.9902 12.6008ZM10.9608 3.93834C10.9217 3.93791 10.8828 3.94475 10.8465 3.95847C10.8102 3.97219 10.7771 3.99252 10.7492 4.01829C10.7213 4.04406 10.6991 4.07476 10.6839 4.10861C10.6687 4.14247 10.6608 4.17881 10.6607 4.21554C10.6605 4.25209 10.668 4.28831 10.6828 4.32213C10.6976 4.35595 10.7193 4.38671 10.7467 4.41265C10.7741 4.4386 10.8068 4.45922 10.8427 4.47334C10.8786 4.48746 10.9172 4.4948 10.9561 4.49494C12.5424 4.50594 13.8333 4.98664 14.8908 5.95353C15.939 6.91272 16.4748 8.21621 16.4889 9.9256C16.489 9.96215 16.4968 9.99831 16.5119 10.032C16.5269 10.0657 16.5489 10.0963 16.5766 10.1221C16.6042 10.1478 16.637 10.1682 16.6731 10.182C16.7091 10.1959 16.7477 10.2029 16.7867 10.2028C16.8257 10.2027 16.8644 10.1953 16.9004 10.1811C16.9364 10.1669 16.969 10.1462 16.9965 10.1201C17.0239 10.0941 17.0456 10.0632 17.0603 10.0292C17.075 9.99528 17.0824 9.95894 17.0821 9.9223C17.0669 8.10291 16.476 6.62673 15.3047 5.55533C14.144 4.49384 12.6761 3.94934 10.9608 3.93834ZM11.5036 5.38263C11.4648 5.37994 11.4257 5.38446 11.3887 5.39594C11.3517 5.40741 11.3174 5.42563 11.2879 5.44953C11.2584 5.47344 11.2342 5.50257 11.2167 5.53526C11.1992 5.56795 11.1887 5.60355 11.1859 5.64003C11.183 5.67651 11.1879 5.71317 11.2001 5.7479C11.2123 5.78263 11.2317 5.81476 11.2572 5.84244C11.2827 5.87013 11.3138 5.89283 11.3486 5.90925C11.3834 5.92567 11.4214 5.93548 11.4603 5.93813C12.5928 6.01623 13.4323 6.36383 14.0455 6.99082C14.6599 7.62112 14.9518 8.38781 14.9295 9.34591C14.9287 9.38245 14.9356 9.41879 14.9498 9.45283C14.964 9.48688 14.9852 9.51796 15.0122 9.54432C15.0392 9.57067 15.0715 9.59178 15.1072 9.60643C15.1429 9.62108 15.1813 9.62899 15.2203 9.6297C15.2986 9.63118 15.3743 9.60357 15.431 9.55288C15.4876 9.50219 15.5206 9.43253 15.5228 9.35911C15.5474 8.28331 15.1992 7.34942 14.4828 6.61573C13.7594 5.87433 12.7476 5.46733 11.5048 5.38263H11.5036ZM11.948 6.87532C11.909 6.8734 11.87 6.8787 11.8333 6.89093C11.7965 6.90317 11.7627 6.92209 11.7337 6.94661C11.7047 6.97113 11.6812 7.00078 11.6644 7.03385C11.6477 7.06692 11.6381 7.10276 11.6361 7.13932C11.632 7.21297 11.6592 7.28516 11.7117 7.34003C11.7642 7.39489 11.8378 7.42794 11.9163 7.43192C12.4275 7.45722 12.7722 7.59252 13.0067 7.81802C13.2389 8.04462 13.3819 8.38561 13.4089 8.88611C13.4128 8.95955 13.4476 9.02855 13.5056 9.07801C13.5636 9.12748 13.6401 9.1534 13.7184 9.15011C13.7965 9.1464 13.8698 9.11393 13.9225 9.05976C13.9752 9.00558 14.003 8.93409 13.9998 8.86081C13.9681 8.27011 13.7887 7.77842 13.4323 7.43082C13.0747 7.08542 12.5612 6.90502 11.948 6.87532ZM19.7283 2.14536C19.1456 1.64156 16.7902 0.0377737 11.5447 0.0157739C11.5447 0.0157739 5.36006 -0.334024 2.34455 2.26086C0.666784 3.83605 0.0758745 6.14053 0.0137352 8.99831C-0.0484041 11.855 -0.129302 17.2097 5.37179 18.6617H5.37765L5.37413 20.8782C5.37413 20.8782 5.33896 21.7747 5.96856 21.9573C6.73064 22.1795 7.17617 21.4975 7.90309 20.7627C8.30289 20.359 8.85393 19.7672 9.26898 19.314C13.0325 19.611 15.9261 18.9323 16.2544 18.8311C17.0141 18.6001 21.0394 17.9544 21.737 12.6008C22.4593 7.08212 21.6628 3.71945 19.7283 2.14536ZM20.3661 12.3335C19.7752 16.8039 16.2884 17.0854 15.6459 17.279C15.3727 17.3615 12.8309 17.9544 9.63478 17.7586C9.63478 17.7586 7.25355 20.4536 6.50905 21.1554C6.39298 21.2654 6.25698 21.3094 6.16553 21.2874C6.03656 21.2577 6.00139 21.1158 6.00373 20.9079L6.02366 17.2262C1.36908 16.0141 1.64108 11.4557 1.69384 9.06981C1.7466 6.68282 2.22496 4.72814 3.64478 3.41255C6.19484 1.24557 11.4474 1.56896 11.4474 1.56896C15.8839 1.58766 18.0107 2.84165 18.5031 3.26075C20.1398 4.57634 20.9746 7.72232 20.365 12.3324L20.3661 12.3335Z" fill="#FF3055"/>
</svg>
