<svg width="22" height="22" viewBox="0 0 22 22" fill="none" xmlns="http://www.w3.org/2000/svg">
<path d="M11.0045 1C9.26665 1.00187 7.55918 1.45578 6.04998 2.3171C4.54079 3.17843 3.28184 4.41751 2.39691 5.91253C1.51198 7.40756 1.03154 9.10704 1.00282 10.8439C0.974099 12.5807 1.39809 14.2952 2.23312 15.8186L1 21L6.18374 19.7674C7.52074 20.5005 9.00771 20.9185 10.531 20.9892C12.0543 21.06 13.5737 20.7817 14.9729 20.1757C16.3722 19.5697 17.6144 18.652 18.6045 17.4927C19.5946 16.3334 20.3065 14.9632 20.6857 13.4869C21.0649 12.0105 21.1015 10.467 20.7926 8.97432C20.4837 7.48165 19.8375 6.07932 18.9034 4.87449C17.9693 3.66966 16.7719 2.69422 15.4029 2.0227C14.0339 1.35119 12.5295 1.00138 11.0045 1ZM6.00226 5.54419H8.72908C8.85249 5.54419 8.97085 5.59319 9.05811 5.68042C9.14538 5.76764 9.1944 5.88595 9.1944 6.0093C9.17914 6.62958 9.28341 7.247 9.50152 7.82791C9.59545 8.02236 9.6161 8.24415 9.55969 8.45259C9.50328 8.66104 9.3736 8.84218 9.1944 8.96279L8.24048 9.89302C8.66345 10.7186 9.21649 11.4709 9.87843 12.1209C10.5235 12.7933 11.2731 13.3572 12.098 13.7907L13.0287 12.8372C13.494 12.3721 13.7081 12.3721 14.1641 12.5302C14.7453 12.7482 15.363 12.8525 15.9835 12.8372C16.1051 12.8429 16.2202 12.8937 16.3063 12.9797C16.3923 13.0657 16.4432 13.1808 16.4488 13.3023V16.0279C16.4432 16.1494 16.3923 16.2645 16.3063 16.3505C16.2202 16.4365 16.1051 16.4874 15.9835 16.493C13.2463 16.3738 10.6516 15.2396 8.70581 13.3116C6.77395 11.3687 5.63867 8.77404 5.52298 6.03721C5.52408 5.90918 5.57451 5.78651 5.66377 5.69469C5.75303 5.60287 5.87426 5.54897 6.00226 5.54419Z" stroke="#FF3055" stroke-width="2" stroke-linecap="round" stroke-linejoin="round"/>
</svg>
